<svg width="10" height="23" viewBox="0 0 10 23" fill="none" xmlns="http://www.w3.org/2000/svg">
<path fill-rule="evenodd" clip-rule="evenodd" d="M0.0028744 11.5604C0.0028744 11.6173 0.0105007 11.6741 0.0133606 11.7505H2.68066V12.0297V21.7655C2.68066 22.0936 2.6778 22.4218 2.67589 22.75H6.67779C6.6797 22.6853 6.68256 22.6217 6.68256 22.557C6.68542 19.0322 6.68637 15.5074 6.68733 11.9827V11.7456H9.61201C9.74166 10.4838 9.87035 9.23573 10 7.95826H9.77884C8.80553 7.95826 7.83032 7.95924 6.85701 7.95826C6.77503 7.95826 6.6797 7.98276 6.68256 7.83777C6.69686 7.04131 6.69495 6.24486 6.7226 5.44938C6.73976 5.01344 7.01335 4.69799 7.39085 4.6255C7.59104 4.58631 7.796 4.55398 8 4.55104C8.59867 4.53831 9.19733 4.53733 9.79409 4.54516C9.9428 4.54516 9.98951 4.50696 9.98951 4.35021C9.98093 3.2197 9.98284 2.08918 9.98475 0.959645C9.98475 0.88911 9.99237 0.819555 9.99619 0.75H6.84938C5.08676 0.75 4.21259 1.39265 3.93042 1.6405C3.64634 1.88933 2.71879 2.99928 2.71879 4.69505C2.71879 5.71389 2.68829 6.7337 2.68352 7.75156C2.68161 7.9083 2.64729 7.96414 2.48428 7.9612C1.72165 7.95337 0.957115 7.96218 0.192579 7.95435C0.044819 7.95337 -0.000938755 7.99353 1.45329e-05 8.15028C0.00573426 9.28765 0.0028744 10.424 0.0028744 11.5604" fill="white"/>
</svg>
