<svg width="31" height="30" viewBox="0 0 31 30" fill="none" xmlns="http://www.w3.org/2000/svg">
<path fill-rule="evenodd" clip-rule="evenodd" d="M9.7519 15.0604C9.7519 15.1173 9.75952 15.1741 9.76238 15.2505H12.4297V15.5297V25.2655C12.4297 25.5936 12.4268 25.9218 12.4249 26.25H16.4268C16.4287 26.1853 16.4316 26.1217 16.4316 26.057C16.4344 22.5322 16.4354 19.0074 16.4363 15.4827V15.2456H19.361C19.4907 13.9838 19.6194 12.7357 19.749 11.4583H19.5279C18.5546 11.4583 17.5793 11.4592 16.606 11.4583C16.5241 11.4583 16.4287 11.4828 16.4316 11.3378C16.4459 10.5413 16.444 9.74486 16.4716 8.94938C16.4888 8.51344 16.7624 8.19799 17.1399 8.1255C17.3401 8.08631 17.545 8.05398 17.749 8.05104C18.3477 8.03831 18.9464 8.03733 19.5431 8.04516C19.6918 8.04516 19.7385 8.00696 19.7385 7.85021C19.73 6.7197 19.7319 5.58918 19.7338 4.45965C19.7338 4.38911 19.7414 4.31956 19.7452 4.25H16.5984C14.8358 4.25 13.9616 4.89265 13.6794 5.1405C13.3954 5.38933 12.4678 6.49928 12.4678 8.19505C12.4678 9.21389 12.4373 10.2337 12.4325 11.2516C12.4306 11.4083 12.3963 11.4641 12.2333 11.4612C11.4707 11.4534 10.7061 11.4622 9.9416 11.4543C9.79384 11.4534 9.74808 11.4935 9.74904 11.6503C9.75476 12.7877 9.7519 13.924 9.7519 15.0604Z" fill="#521483"/>
</svg>
