<svg width="189" height="104" viewBox="0 0 189 104" fill="none" xmlns="http://www.w3.org/2000/svg">
<path d="M100.04 36.1596L106.431 62.2868H94.7081L89.8146 42.1833L81.6709 57.8892L81.5613 58.1109L81.1231 58.9239C79.8815 60.9195 77.6538 62.2499 75.134 62.2499C72.4316 62.2499 70.0944 60.7347 68.8893 58.5174C68.8527 58.4804 68.8527 58.4065 68.8162 58.3696L68.6702 58.1109L60.3073 41.9616L55.3407 62.2499H43.6547L51.9445 28.4361L52.1636 27.5861C53.0035 24.7036 55.7059 22.5972 58.8466 22.5972C61.4759 22.5972 63.7401 24.0384 64.9817 26.1818C64.9817 26.1818 64.9817 26.2188 65.0183 26.2188L65.2374 26.6253L75.134 45.694L80.1006 36.1227H100.04V36.1596Z" fill="url(#paint0_linear_675:3170)"/>
<path d="M143.863 33.2034C143.863 33.1664 143.863 33.1664 143.826 33.1295C141.964 27.2167 136.559 22.893 130.132 22.6712H130.095C129.949 22.6712 129.803 22.6712 129.657 22.6712C129.511 22.6712 97.0454 22.6712 91.8962 22.6712C91.7136 22.6712 91.4945 22.6343 91.3119 22.6343C90.1433 22.6343 89.0843 22.9299 88.1348 23.4103C87.9887 23.4842 87.8791 23.5582 87.7331 23.6321C87.587 23.706 87.4774 23.7799 87.3679 23.8907C87.3679 23.8907 87.3679 23.8907 87.3313 23.8907C87.2583 23.9277 87.2218 23.9647 87.1488 24.0016C86.3453 24.5929 85.6515 25.4059 85.1767 26.2928C85.1402 26.3667 85.1037 26.4406 85.0672 26.5145L82.1457 32.1687L81.6344 33.1664H99.3461H129.511H129.547H129.766C132.213 33.2404 134.149 35.2359 134.149 37.7119C134.149 40.2248 132.14 42.2574 129.657 42.2574H104.605L107.161 52.7526L109.462 62.213H110.156V52.7526H129.292C129.693 52.7526 130.058 52.7156 130.46 52.6787C136.778 52.3461 142.037 48.0593 143.863 42.1835C144.301 40.7422 144.556 39.2271 144.556 37.638C144.556 36.1598 144.301 34.6446 143.863 33.2034Z" fill="url(#paint1_linear_675:3170)"/>
<path d="M21.7068 73.1147V82.5013H19.8079V70.454H21.6703C22.4007 70.454 22.6929 70.9344 22.985 71.3778L26.8195 77.5124L30.6175 71.3778C30.9096 70.9344 31.2018 70.454 31.9321 70.454H33.7946V82.5013H31.8956V73.1147L27.5134 80.0253H26.0161L21.7068 73.1147ZM48.4752 82.5013H46.3936L45.225 79.5449H38.469L37.3004 82.5013H35.2554L39.0168 72.856C39.6011 71.3778 40.295 70.3062 41.8653 70.3062C43.4356 70.3062 44.1295 71.3778 44.7138 72.856L48.4752 82.5013ZM42.8148 73.3365C42.5957 72.8191 42.34 72.5235 41.8653 72.5235C41.354 72.5235 41.0984 72.856 40.9158 73.3365L39.3455 77.2906H44.3486L42.8148 73.3365ZM49.8994 70.454H57.8971C60.1613 70.454 61.549 71.7844 61.549 74.1864C61.549 75.8864 60.8551 76.9211 59.65 77.3646C60.8186 77.845 61.3299 78.8428 61.3299 80.0992V82.4643H59.3213V80.0253C59.3213 79.3601 59.0292 78.5102 57.8241 78.5102H51.8349V82.4643H49.8994V70.454ZM58.0432 76.2929C59.2118 76.2929 59.577 75.2581 59.577 74.4821C59.577 73.706 59.2118 72.6713 58.0432 72.6713H51.8349V76.2929H58.0432ZM72.3951 82.5013L70.3866 78.9906C70.1309 78.5471 69.4736 77.5124 68.5971 77.5124H65.347V82.5383H63.4114V70.4909H65.347V75.2951H68.378C69.218 75.2951 69.9118 74.2603 70.204 73.8169L72.176 70.4909H74.7323L71.8473 74.8516C71.4821 75.4059 71.0439 75.9603 70.4231 76.3298C71.19 76.6624 71.7012 77.2906 72.0664 77.8819L74.9514 82.5013H72.3951ZM79.6989 72.856C77.9095 72.856 77.3617 73.743 77.2156 75.369H86.8201V77.6232H77.2156C77.3617 79.2123 77.8729 80.0992 79.6989 80.0992H87.0027V82.5013H79.6989C76.4122 82.5013 75.2436 80.4318 75.2436 76.4776C75.2436 72.5235 76.3757 70.454 79.6989 70.454H87.0027V72.856H79.6989ZM92.6996 82.5013V72.7452H88.0982V70.4909H99.1635V72.7452H94.5986V82.5013H92.6996Z" fill="url(#paint2_linear_675:3170)"/>
<path d="M112.164 70.454C114.721 70.454 115.853 72.3017 115.853 74.4821C115.853 76.6624 114.721 78.5471 112.164 78.5471H106.102V82.5013H104.167V70.454H112.164ZM112.274 76.3298C113.442 76.3298 113.844 75.2581 113.844 74.4821C113.844 73.706 113.442 72.6343 112.274 72.6343H106.139V76.2929H112.274V76.3298ZM121.44 72.856C119.651 72.856 119.103 73.743 118.957 75.369H128.561V77.6232H118.957C119.103 79.2123 119.614 80.0992 121.44 80.0992H128.744V82.5013H121.44C118.153 82.5013 116.985 80.4318 116.985 76.4776C116.985 72.5234 118.117 70.454 121.44 70.454H128.744V72.856H121.44ZM143.132 82.5013H141.051L139.882 79.5449H133.09L131.921 82.5013H129.876L133.637 72.856C134.222 71.3778 134.915 70.3062 136.486 70.3062C138.056 70.3062 138.75 71.3778 139.334 72.856L143.132 82.5013ZM137.472 73.3365C137.253 72.8191 136.997 72.5234 136.522 72.5234C136.048 72.5234 135.755 72.856 135.573 73.3365L134.003 77.2906H139.006L137.472 73.3365ZM155.366 72.893H148.099C145.908 72.893 145.616 74.1495 145.616 76.4776C145.616 78.8058 145.871 80.0253 148.099 80.0253H155.366V82.5013H148.099C144.776 82.5013 143.644 80.4318 143.644 76.4776C143.644 72.5234 144.776 70.454 148.099 70.454H155.366V72.893ZM161.063 72.856C159.274 72.856 158.726 73.743 158.58 75.369H168.184V77.6232H158.58C158.726 79.2123 159.237 80.0992 161.063 80.0992H168.367V82.5013H161.063C157.776 82.5013 156.608 80.4318 156.608 76.4776C156.608 72.5234 157.74 70.454 161.063 70.454H168.367V72.856H161.063Z" fill="url(#paint3_linear_675:3170)"/>
<defs>
<linearGradient id="paint0_linear_675:3170" x1="24.1034" y1="42.4347" x2="99.3239" y2="42.4347" gradientUnits="userSpaceOnUse">
<stop offset="0.1098" stop-color="#521483"/>
<stop offset="1" stop-color="#F72283"/>
</linearGradient>
<linearGradient id="paint1_linear_675:3170" x1="81.621" y1="42.4614" x2="149.255" y2="42.4614" gradientUnits="userSpaceOnUse">
<stop stop-color="#F72283"/>
<stop offset="1" stop-color="#FED625"/>
</linearGradient>
<linearGradient id="paint2_linear_675:3170" x1="19.8079" y1="76.3864" x2="114.455" y2="76.3864" gradientUnits="userSpaceOnUse">
<stop offset="0.1098" stop-color="#521483"/>
<stop offset="0.2695" stop-color="#791783"/>
<stop offset="0.5149" stop-color="#AF1C83"/>
<stop offset="0.7273" stop-color="#D61F83"/>
<stop offset="0.896" stop-color="#EE2183"/>
<stop offset="1" stop-color="#F72283"/>
</linearGradient>
<linearGradient id="paint3_linear_675:3170" x1="87.4019" y1="76.3864" x2="173" y2="76.3864" gradientUnits="userSpaceOnUse">
<stop stop-color="#F72283"/>
<stop offset="1" stop-color="#FED625"/>
</linearGradient>
</defs>
</svg>
