<svg width="149" height="59" viewBox="0 0 149 59" fill="none" xmlns="http://www.w3.org/2000/svg">
<g clip-path="url(#clip0_534:12827)">
<path d="M80.3754 13.3578L86.745 39.0907H75.0614L70.1842 19.2906L62.0676 34.7594L61.9584 34.9778L61.5216 35.7785C60.2841 37.744 58.0639 39.0543 55.5525 39.0543C52.8591 39.0543 50.5297 37.562 49.3286 35.3782C49.2922 35.3418 49.2922 35.269 49.2558 35.2326L49.1102 34.9778L40.7752 19.0722L35.8252 39.0543H24.178L32.4402 5.75077L32.6586 4.91363C33.4957 2.07465 36.1891 0 39.3193 0C41.9399 0 44.1965 1.41949 45.434 3.53054C45.434 3.53054 45.4341 3.56693 45.4704 3.56693L45.6888 3.9673L55.5525 22.7483L60.5025 13.3214H80.3754V13.3578Z" fill="white"/>
<path d="M124.052 10.4458C124.052 10.4094 124.052 10.4094 124.016 10.373C122.159 4.5494 116.773 0.290914 110.367 0.0725301H110.33C110.185 0.0725301 110.039 0.0725301 109.894 0.0725301C109.748 0.0725301 77.3908 0.0725301 72.2588 0.0725301C72.0768 0.0725301 71.8585 0.0361328 71.6765 0.0361328C70.5118 0.0361328 69.4562 0.327311 68.5099 0.800476C68.3643 0.87327 68.2551 0.946065 68.1095 1.01886C67.9639 1.09165 67.8548 1.16445 67.7456 1.27364C67.7456 1.27364 67.7456 1.27364 67.7092 1.27364C67.6364 1.31004 67.6 1.34644 67.5272 1.38283C66.7264 1.96519 66.0349 2.76593 65.5617 3.63946C65.5253 3.71226 65.4889 3.78505 65.4525 3.85785L62.5407 9.42663L62.0312 10.4094H79.6839H109.748H109.784H110.003C112.441 10.4822 114.37 12.4476 114.37 14.8862C114.37 17.3612 112.369 19.3631 109.894 19.3631H84.9251L87.4729 29.6999L89.7659 39.0176H90.4575V29.6999H109.53C109.93 29.6999 110.294 29.6635 110.694 29.6271C116.991 29.2996 122.232 25.0775 124.052 19.2903C124.489 17.8708 124.744 16.3785 124.744 14.8134C124.744 13.3575 124.489 11.8653 124.052 10.4458Z" fill="white"/>
<path d="M2.3033 49.755V58.9999H0.410645V47.1344H2.26691C2.99485 47.1344 3.28603 47.6075 3.57721 48.0443L7.39892 54.0862L11.1842 48.0443C11.4754 47.6075 11.7666 47.1344 12.4945 47.1344H14.3508V58.9999H12.4581V49.755L8.09047 56.5613H6.59818L2.3033 49.755ZM28.9825 58.9999H26.9079L25.7432 56.0881H19.0097L17.8449 58.9999H15.8067L19.5556 49.5002C20.138 48.0443 20.8295 46.9888 22.3946 46.9888C23.9597 46.9888 24.6512 48.0443 25.2336 49.5002L28.9825 58.9999ZM23.3409 49.9733C23.1225 49.4638 22.8678 49.1726 22.3946 49.1726C21.885 49.1726 21.6303 49.5002 21.4483 49.9733L19.8832 53.8679H24.8696L23.3409 49.9733ZM30.402 47.1344H38.373C40.6296 47.1344 42.0127 48.4447 42.0127 50.8105C42.0127 52.4848 41.3212 53.5039 40.1201 53.9406C41.2848 54.4138 41.7944 55.3965 41.7944 56.6341V58.9635H39.7925V56.5613C39.7925 55.9061 39.5013 55.069 38.3002 55.069H32.3311V58.9635H30.402V47.1344ZM38.5186 52.8851C39.6833 52.8851 40.0473 51.866 40.0473 51.1017C40.0473 50.3373 39.6833 49.3182 38.5186 49.3182H32.3311V52.8851H38.5186ZM52.8227 58.9999L50.8209 55.5421C50.5661 55.1054 49.911 54.0862 49.0374 54.0862H45.7981V59.0363H43.869V47.1708H45.7981V51.9024H48.819C49.6562 51.9024 50.3477 50.8833 50.6389 50.4465L52.6043 47.1708H55.1522L52.2768 51.4656C51.9128 52.0116 51.476 52.5576 50.8573 52.9215C51.6216 53.2491 52.1312 53.8679 52.4952 54.4502L55.3705 58.9999H52.8227ZM60.1022 49.5002C58.3187 49.5002 57.7728 50.3737 57.6272 51.9752H67.1997V54.1954H57.6272C57.7728 55.7605 58.2823 56.6341 60.1022 56.6341H67.3816V58.9999H60.1022C56.8264 58.9999 55.6617 56.9616 55.6617 53.0671C55.6617 49.1726 56.79 47.1344 60.1022 47.1344H67.3816V49.5002H60.1022ZM73.0596 58.9999V49.391H68.4736V47.1708H79.5019V49.391H74.9523V58.9999H73.0596Z" fill="white"/>
<path d="M92.4594 47.1344C95.0072 47.1344 96.1355 48.9542 96.1355 51.1017C96.1355 53.2491 95.0072 55.1054 92.4594 55.1054H86.4175V58.9999H84.4884V47.1344H92.4594ZM92.5686 52.9215C93.7333 52.9215 94.1337 51.866 94.1337 51.1017C94.1337 50.3373 93.7333 49.2818 92.5686 49.2818H86.4539V52.8851H92.5686V52.9215ZM101.704 49.5002C99.9208 49.5002 99.3749 50.3737 99.2293 51.9752H108.802V54.1954H99.2293C99.3749 55.7605 99.8844 56.6341 101.704 56.6341H108.984V58.9999H101.704C98.4286 58.9999 97.2639 56.9616 97.2639 53.0671C97.2639 49.1726 98.3922 47.1344 101.704 47.1344H108.984V49.5002H101.704ZM123.324 58.9999H121.25L120.085 56.0881H113.315L112.15 58.9999H110.112L113.861 49.5002C114.443 48.0443 115.135 46.9888 116.7 46.9888C118.265 46.9888 118.957 48.0443 119.539 49.5002L123.324 58.9999ZM117.683 49.9733C117.464 49.4638 117.21 49.1726 116.736 49.1726C116.263 49.1726 115.972 49.5002 115.79 49.9733L114.225 53.8679H119.211L117.683 49.9733ZM135.517 49.5366H128.274C126.09 49.5366 125.799 50.7741 125.799 53.0671C125.799 55.3601 126.054 56.5613 128.274 56.5613H135.517V58.9999H128.274C124.962 58.9999 123.834 56.9616 123.834 53.0671C123.834 49.1726 124.962 47.1344 128.274 47.1344H135.517V49.5366ZM141.195 49.5002C139.412 49.5002 138.866 50.3737 138.72 51.9752H148.293V54.1954H138.72C138.866 55.7605 139.376 56.6341 141.195 56.6341H148.475V58.9999H141.195C137.92 58.9999 136.755 56.9616 136.755 53.0671C136.755 49.1726 137.883 47.1344 141.195 47.1344H148.475V49.5002H141.195Z" fill="white"/>
</g>
<defs>
<clipPath id="clip0_534:12827">
<rect width="148.064" height="59" fill="white" transform="translate(0.410645)"/>
</clipPath>
</defs>
</svg>
