<svg width="31" height="30" viewBox="0 0 31 30" fill="none" xmlns="http://www.w3.org/2000/svg">
<mask id="mask0_1002:10204" style="mask-type:alpha" maskUnits="userSpaceOnUse" x="5" y="4" width="22" height="22">
<path fill-rule="evenodd" clip-rule="evenodd" d="M5.30371 4.56396H26.1954V25.4359H5.30371V4.56396V4.56396Z" fill="white"/>
</mask>
<g mask="url(#mask0_1002:10204)">
<path fill-rule="evenodd" clip-rule="evenodd" d="M26.1767 12.096C26.1617 11.132 26.1207 10.154 25.9417 9.20998C25.5477 7.12298 24.3167 5.69698 22.2897 4.99598C21.2437 4.63598 20.1507 4.59798 19.0637 4.58598C16.9837 4.56298 14.9017 4.55098 12.8217 4.58298C11.8667 4.59698 10.9007 4.65598 9.95871 4.81698C8.37471 5.08998 7.12671 5.93598 6.28071 7.32098C5.63471 8.37698 5.41571 9.55597 5.38271 10.772C5.3534 11.7553 5.3387 12.7387 5.32399 13.7224C5.31763 14.1482 5.31126 14.574 5.30371 15H5.33371C5.33371 15.3001 5.33073 15.6003 5.32775 15.9005C5.32112 16.5685 5.31449 17.2365 5.34071 17.903C5.34462 18.0022 5.34833 18.1016 5.35205 18.201C5.3845 19.069 5.4171 19.9411 5.57771 20.789C5.97271 22.876 7.20171 24.302 9.23171 25.003C10.2777 25.364 11.3697 25.402 12.4577 25.414C14.5287 25.436 16.6037 25.448 18.6747 25.418C19.6387 25.402 20.6167 25.362 21.5607 25.18C23.6477 24.78 25.0687 23.549 25.7667 21.518C26.1247 20.471 26.1627 19.38 26.1727 18.291C26.1957 16.227 26.2077 14.161 26.1767 12.096ZM15.7493 18.4772C13.8413 18.4672 12.2753 16.8952 12.2843 14.9902C12.2913 13.0812 13.8613 11.5182 15.7703 11.5232C17.6753 11.5292 19.2443 13.1052 19.2353 15.0092C19.2293 16.9172 17.6533 18.4852 15.7493 18.4772ZM15.8043 9.64117C12.7973 9.64117 10.4033 12.0072 10.4023 14.9792C10.4023 17.9762 12.7753 20.3582 15.7613 20.3582C18.7163 20.3582 21.1153 17.9762 21.1183 15.0432C21.1203 12.0482 18.7533 9.64317 15.8043 9.64117ZM20.067 9.44086C20.059 8.74786 20.626 8.17986 21.326 8.17786C22.037 8.17686 22.581 8.71986 22.581 9.43086C22.581 10.1299 22.011 10.7009 21.323 10.6919C20.636 10.6839 20.076 10.1249 20.067 9.44086Z" fill="#521483"/>
</g>
</svg>
