<svg width="30" height="31" viewBox="0 0 30 31" fill="none" xmlns="http://www.w3.org/2000/svg">
<mask id="mask0_534:26166" style="mask-type:alpha" maskUnits="userSpaceOnUse" x="4" y="5" width="22" height="21">
<path fill-rule="evenodd" clip-rule="evenodd" d="M4.55371 5.06396H25.4454V25.9359H4.55371V5.06396V5.06396Z" fill="white"/>
</mask>
<g mask="url(#mask0_534:26166)">
<path fill-rule="evenodd" clip-rule="evenodd" d="M25.4267 12.596C25.4117 11.632 25.3707 10.654 25.1917 9.70998C24.7977 7.62298 23.5667 6.19698 21.5397 5.49598C20.4937 5.13598 19.4007 5.09798 18.3137 5.08598C16.2337 5.06298 14.1517 5.05098 12.0717 5.08298C11.1167 5.09698 10.1507 5.15598 9.20871 5.31698C7.62471 5.58998 6.37671 6.43598 5.53071 7.82098C4.88471 8.87698 4.66571 10.056 4.63271 11.272C4.6034 12.2553 4.5887 13.2387 4.57399 14.2224C4.56763 14.6482 4.56126 15.074 4.55371 15.5H4.58371C4.58371 15.8001 4.58073 16.1003 4.57775 16.4005C4.57112 17.0685 4.56449 17.7365 4.59071 18.403C4.59462 18.5022 4.59833 18.6016 4.60205 18.701C4.6345 19.569 4.6671 20.4411 4.82771 21.289C5.22271 23.376 6.45171 24.802 8.48171 25.503C9.52771 25.864 10.6197 25.902 11.7077 25.914C13.7787 25.936 15.8537 25.948 17.9247 25.918C18.8887 25.902 19.8667 25.862 20.8107 25.68C22.8977 25.28 24.3187 24.049 25.0167 22.018C25.3747 20.971 25.4127 19.88 25.4227 18.791C25.4457 16.727 25.4577 14.661 25.4267 12.596ZM14.9993 18.9772C13.0913 18.9672 11.5253 17.3952 11.5343 15.4902C11.5413 13.5812 13.1113 12.0182 15.0203 12.0232C16.9253 12.0292 18.4943 13.6052 18.4853 15.5092C18.4793 17.4172 16.9033 18.9852 14.9993 18.9772ZM15.0543 10.1412C12.0473 10.1412 9.65331 12.5072 9.65231 15.4792C9.65231 18.4762 12.0253 20.8582 15.0113 20.8582C17.9663 20.8582 20.3653 18.4762 20.3683 15.5432C20.3703 12.5482 18.0033 10.1432 15.0543 10.1412ZM19.317 9.94086C19.309 9.24786 19.876 8.67986 20.576 8.67786C21.287 8.67686 21.831 9.21986 21.831 9.93086C21.831 10.6299 21.261 11.2009 20.573 11.1919C19.886 11.1839 19.326 10.6249 19.317 9.94086Z" fill="white"/>
</g>
</svg>
