<svg width="31" height="30" viewBox="0 0 31 30" fill="none" xmlns="http://www.w3.org/2000/svg">
<path fill-rule="evenodd" clip-rule="evenodd" d="M13.942 12.0303V17.8953C15.549 16.9063 17.11 15.9463 18.711 14.9623C17.099 13.9723 15.542 13.0143 13.942 12.0303ZM15.199 21.6423C13.224 21.5493 11.25 21.4663 9.27598 21.3563C8.88898 21.3353 8.49098 21.2563 8.12898 21.1223C6.93198 20.6833 6.46098 19.7293 6.34298 18.5223C6.13198 16.3703 6.13898 14.2173 6.28198 12.0643C6.31598 11.5673 6.39898 11.0713 6.50098 10.5823C6.71498 9.55332 7.63798 8.72232 8.79198 8.64232C10.811 8.50232 12.834 8.38032 14.855 8.36032C17.008 8.33932 19.166 8.43732 21.321 8.49932C21.818 8.51432 22.319 8.57432 22.812 8.64932C24.064 8.83832 24.791 9.57232 25.015 10.8363C25.283 12.3443 25.357 13.8673 25.304 15.3923C25.262 16.6253 25.143 17.8593 25.013 19.0883C24.863 20.5143 23.647 21.2323 22.694 21.2863C20.58 21.4113 18.462 21.4883 16.345 21.5783C15.963 21.5943 15.582 21.5803 15.2 21.5803C15.2 21.6003 15.199 21.6203 15.199 21.6423Z" fill="#521483"/>
</svg>
