<svg width="30" height="31" viewBox="0 0 30 31" fill="none" xmlns="http://www.w3.org/2000/svg">
<path fill-rule="evenodd" clip-rule="evenodd" d="M13.1927 12.5303V18.3953C14.7997 17.4063 16.3607 16.4463 17.9617 15.4623C16.3497 14.4723 14.7927 13.5143 13.1927 12.5303ZM14.4497 22.1423C12.4747 22.0493 10.5007 21.9663 8.52671 21.8563C8.13971 21.8353 7.74171 21.7563 7.37971 21.6223C6.18271 21.1833 5.71171 20.2293 5.59371 19.0223C5.38271 16.8703 5.38971 14.7173 5.53271 12.5643C5.56671 12.0673 5.64971 11.5713 5.75171 11.0823C5.96571 10.0533 6.88871 9.22232 8.04271 9.14232C10.0617 9.00232 12.0847 8.88032 14.1057 8.86032C16.2587 8.83932 18.4167 8.93732 20.5717 8.99932C21.0687 9.01432 21.5697 9.07432 22.0627 9.14932C23.3147 9.33832 24.0417 10.0723 24.2657 11.3363C24.5337 12.8443 24.6077 14.3673 24.5547 15.8923C24.5127 17.1253 24.3937 18.3593 24.2637 19.5883C24.1137 21.0143 22.8977 21.7323 21.9447 21.7863C19.8307 21.9113 17.7127 21.9883 15.5957 22.0783C15.2137 22.0943 14.8327 22.0803 14.4507 22.0803C14.4507 22.1003 14.4497 22.1203 14.4497 22.1423Z" fill="white"/>
</svg>
